<svg xmlns="http://www.w3.org/2000/svg" viewBox="0 0 512 512" id="report"><g><path fill="none" d="M356.9 168c-28.1 0-50.9-22.2-50.9-49.6V40.7l-216.6-.6c-5.5 0-10.4 4.7-10.4 10v411.8c0 5.2 5.3 10.2 10.9 10.2h339c5.7 0 9.1-5.2 9.1-10.2V168h-81.1zM199 389c0 11-9 20-20 20s-20-9-20-20V173c0-11 9-20 20-20s20 9 20 20v216zm80 0c0 11-9 20-20 20s-20-9-20-20V225c0-11 9-20 20-20s20 9 20 20v164zm80 0c0 11-9 20-20 20s-20-9-20-20V277c0-11 9-20 20-20s20 9 20 20v112z"></path><path fill="none" d="M356.9 128h52L346 67.2v51.3c0 5 5.1 9.5 10.9 9.5z"></path><path d="M468.2 129.8 346.5 12C339.1 4.8 329 .7 318.6.7L89.4.1C61.6.1 39 22.5 39 50.1v411.8C39 489 62.3 512 89.9 512h339c27.1 0 49.1-22.5 49.1-50.2V153.7c0-9.3-3.5-17.8-9.8-23.9zM346 67.2l62.9 60.8h-52c-5.8 0-10.9-4.5-10.9-9.6V67.2zM428.9 472h-339c-5.6 0-10.9-4.9-10.9-10.2V50.1c0-5.3 4.9-10 10.4-10l216.6.6v77.7c0 27.3 22.8 49.6 50.9 49.6H438v293.8c0 5-3.4 10.2-9.1 10.2z"></path><path d="M179 153c-11 0-20 9-20 20v216c0 11 9 20 20 20s20-9 20-20V173c0-11-9-20-20-20zM259 205c-11 0-20 9-20 20v164c0 11 9 20 20 20s20-9 20-20V225c0-11-9-20-20-20zM339 257c-11 0-20 9-20 20v112c0 11 9 20 20 20s20-9 20-20V277c0-11-9-20-20-20z"></path></g></svg>