<svg xmlns="http://www.w3.org/2000/svg" viewBox="0 0 640 512"><!--!Font Awesome Free 6.5.2 by @fontawesome - https://fontawesome.com License - https://fontawesome.com/license/free Copyright 2024 Fonticons, Inc.--><path d="M629.7 343.6L529 444.3c-9.4 9.4-24.6 9.4-33.9 0L394.3 343.6c-9.4-9.4-9.4-24.6 0-33.9l10.8-10.8c9.6-9.6 25.1-9.3 34.4 .5L480 342.1V160H292.5a24 24 0 0 1 -17-7l-16-16C244.4 121.9 255.1 96 276.5 96H520c13.3 0 24 10.7 24 24v222.1l40.4-42.8c9.3-9.8 24.9-10.1 34.4-.5l10.8 10.8c9.4 9.4 9.4 24.6 0 33.9zm-265.1 15.4A24 24 0 0 0 347.5 352H160V169.9l40.4 42.8c9.3 9.8 24.9 10.1 34.4 .5l10.8-10.8c9.4-9.4 9.4-24.6 0-33.9L145 67.7c-9.4-9.4-24.6-9.4-33.9 0L10.3 168.4c-9.4 9.4-9.4 24.6 0 33.9l10.8 10.8c9.6 9.6 25.1 9.3 34.4-.5L96 169.9V392c0 13.3 10.7 24 24 24h243.5c21.4 0 32.1-25.9 17-41l-16-16z"/></svg>